<svg width="41" height="41" viewBox="0 0 41 41" fill="none" xmlns="http://www.w3.org/2000/svg">
<path d="M20.5 41C9.16471 41 0 31.8353 0 20.5C0 9.16471 9.16471 0 20.5 0C31.8353 0 41 9.16471 41 20.5C41 31.8353 31.8353 41 20.5 41ZM20.5 2.41176C10.4912 2.41176 2.41176 10.4912 2.41176 20.5C2.41176 30.5088 10.4912 38.5882 20.5 38.5882C30.5088 38.5882 38.5882 30.5088 38.5882 20.5C38.5882 10.4912 30.5088 2.41176 20.5 2.41176Z" fill="#9C9B9B"/>
<path d="M20.3604 31L9 19.5L20.3604 8L22 9.65979L12.2793 19.5L22 29.3402L20.3604 31Z" fill="#9C9B9B"/>
<path d="M10 19H30V21H10V19Z" fill="#9C9B9B"/>
</svg>
