<svg width="22" height="22" viewBox="0 0 22 22" fill="none" xmlns="http://www.w3.org/2000/svg">
<path d="M11 10.55C10.4317 10.55 9.88663 10.3129 9.48477 9.89099C9.08291 9.46903 8.85714 8.89674 8.85714 8.3C8.85714 7.70326 9.08291 7.13097 9.48477 6.70901C9.88663 6.28705 10.4317 6.05 11 6.05C11.5683 6.05 12.1134 6.28705 12.5152 6.70901C12.9171 7.13097 13.1429 7.70326 13.1429 8.3C13.1429 8.59547 13.0874 8.88806 12.9797 9.16104C12.8721 9.43402 12.7142 9.68206 12.5152 9.89099C12.3162 10.0999 12.08 10.2657 11.82 10.3787C11.5601 10.4918 11.2814 10.55 11 10.55ZM11 2C9.4087 2 7.88258 2.66375 6.75736 3.84523C5.63214 5.02671 5 6.62914 5 8.3C5 13.025 11 20 11 20C11 20 17 13.025 17 8.3C17 6.62914 16.3679 5.02671 15.2426 3.84523C14.1174 2.66375 12.5913 2 11 2Z" fill="white"/>
</svg>
