<svg width="22" height="22" viewBox="0 0 22 22" fill="none" xmlns="http://www.w3.org/2000/svg">
<path d="M10.1257 3.19242C9.80748 2.48361 9.14248 1.91028 8.32571 2.01167C7.59503 2.10214 6.51022 2.40495 5.77056 3.39793C5.01132 4.41774 4.72819 6.00814 5.31118 8.39102C5.93375 10.933 6.85823 13.4391 8.00749 15.461C9.14819 17.4683 10.5533 19.0751 12.1652 19.6912C13.5906 20.2359 14.6807 20.0085 15.4759 19.4102C16.2429 18.8332 16.6639 17.9653 16.8818 17.3642C17.1257 16.6913 16.965 15.9907 16.6468 15.4742L15.473 13.5719C15.2137 13.1515 14.8404 12.8348 14.4078 12.6681C13.9753 12.5015 13.5061 12.4936 13.0692 12.6458L11.4471 13.2109C11.3959 13.2303 11.3407 13.2327 11.2882 13.2175C11.2358 13.2024 11.1885 13.1706 11.1522 13.1259C10.43 12.1834 9.62104 10.8689 9.40114 9.53859C9.3941 9.50307 9.39888 9.4659 9.4146 9.43402C9.65326 8.98709 10.0641 8.48059 10.4725 8.0373C11.1648 7.2862 11.4271 6.09226 10.9702 5.07472L10.1257 3.19242Z" fill="white"/>
</svg>
