<svg width="24" height="14" viewBox="0 0 24 14" fill="none" xmlns="http://www.w3.org/2000/svg">
<path d="M20.5 4.244V10.8594C20.5 11.5339 20.2301 12.1828 19.7455 12.6731C19.2609 13.1633 18.5984 13.4578 17.8939 13.4959L17.7375 13.5H6.2625C5.55688 13.5 4.878 13.242 4.3651 12.7788C3.85221 12.3155 3.5442 11.6823 3.50425 11.0089L3.5 10.8594V4.244L11.7042 8.352C11.7955 8.3977 11.897 8.42157 12 8.42157C12.103 8.42157 12.2045 8.3977 12.2958 8.352L20.5 4.244ZM6.2625 0.5H17.7375C18.4222 0.499921 19.0826 0.742934 19.5905 1.1819C20.0985 1.62088 20.4177 2.22452 20.4864 2.87575L12 7.12512L3.5136 2.87575C3.57949 2.25038 3.87659 1.66798 4.35149 1.23325C4.82638 0.79852 5.44793 0.539964 6.1044 0.504063L6.2625 0.5Z" fill="white"/>
</svg>
